<svg width="78" height="12" viewBox="0 0 78 12" fill="none" xmlns="http://www.w3.org/2000/svg">
<path d="M75.2631 10.8324V8.72485H77.3405V10.8324H75.2631Z" fill="black"/>
<path d="M67.6747 10.8324V0H69.5934V5.94499L72.3204 2.90073H74.6848L71.8294 5.96765L74.9492 10.8324H72.683L70.5679 7.32737L69.5934 8.36982V10.8324H67.6747Z" fill="black"/>
<path d="M62.2618 10.8324V2.90074H64.1201V4.36622C64.4675 3.37665 65.2985 2.74966 66.4845 2.74966C66.6204 2.74966 66.764 2.76477 66.8622 2.78743V4.65327C66.6658 4.60795 66.4693 4.58528 66.2503 4.58528C64.9888 4.58528 64.1805 5.36334 64.1805 6.8968V10.8324H62.2618Z" fill="black"/>
<path d="M57.355 11.0515C55.0737 11.0515 53.578 9.42738 53.578 6.85903C53.578 4.29822 55.0737 2.68167 57.355 2.68167C59.6363 2.68167 61.1245 4.29822 61.1245 6.85903C61.1245 9.42738 59.6363 11.0515 57.355 11.0515ZM55.5647 6.85903C55.5647 8.59644 56.237 9.54069 57.355 9.54069C58.473 9.54069 59.1453 8.604 59.1453 6.85903C59.1453 5.11406 58.473 4.19247 57.355 4.19247C56.237 4.19247 55.5647 5.12161 55.5647 6.85903Z" fill="black"/>
<path d="M43.8896 10.8324L41.6536 2.90073H43.5496L44.9471 8.39248L46.5637 2.90073H48.5353L50.1367 8.46802L51.5115 2.90073H53.3169L51.0885 10.8324H49.1849L47.5306 4.96296L45.8083 10.8324H43.8896Z" fill="black"/>
<path d="M37.7213 11.0515C35.4778 11.0515 33.899 9.70688 33.899 6.86658C33.899 4.24535 35.5382 2.68167 37.7288 2.68167C39.8591 2.68167 41.3472 4.13204 41.3472 6.73816C41.3472 6.94212 41.3472 7.13852 41.3397 7.36514H35.8252C35.9159 8.83817 36.6486 9.57846 37.7742 9.57846C38.6202 9.57846 39.2472 9.08745 39.3832 8.19608H41.3094C41.1055 9.92595 39.7835 11.0515 37.7213 11.0515ZM35.8555 5.97521H39.3681C39.2774 4.73636 38.6806 4.13204 37.6911 4.13204C36.7393 4.13204 36.0292 4.77413 35.8555 5.97521Z" fill="black"/>
<path d="M21.5138 10.8324V2.90074H23.3872V4.07916C23.78 3.21045 24.6109 2.68167 25.7365 2.68167C26.7865 2.68167 27.5117 3.24067 27.8214 4.16225C28.2822 3.23311 29.166 2.68167 30.3671 2.68167C31.9307 2.68167 32.8221 3.76945 32.8221 5.40111V10.8324H30.9109V5.55219C30.9109 4.68348 30.503 4.18491 29.725 4.18491C28.7732 4.18491 28.1311 4.92521 28.1311 6.27737V10.8324H26.2124V5.55219C26.2124 4.68348 25.812 4.18491 25.0264 4.18491C24.0746 4.18491 23.4325 4.92521 23.4325 6.27737V10.8324H21.5138Z" fill="black"/>
<path d="M15.6628 11.0515C14.1897 11.0515 13.0642 10.1526 13.0642 8.67198C13.0642 7.13852 14.0538 6.42845 15.5872 6.19428L16.9167 5.99032C17.7703 5.8619 18.1102 5.67305 18.1102 5.15182C18.1102 4.62305 17.6948 4.09427 16.7656 4.09427C15.8818 4.09427 15.3077 4.58528 15.2624 5.37844H13.2757C13.3361 3.80722 14.6807 2.68167 16.743 2.68167C18.8581 2.68167 20.029 3.79211 20.029 5.63528V9.00436C20.029 9.654 20.1196 10.417 20.3387 10.5907V10.8324H18.3369C18.2613 10.5454 18.2009 10.1828 18.1707 9.79753C17.6948 10.5152 16.8185 11.0515 15.6628 11.0515ZM15.0433 8.54357C15.0433 9.19321 15.5797 9.58602 16.2822 9.58602C17.4228 9.58602 18.1329 8.76263 18.1329 7.6673V6.8137C17.8761 7.03277 17.5286 7.14608 17.0149 7.25183L16.3351 7.38781C15.4815 7.55399 15.0433 7.88637 15.0433 8.54357Z" fill="black"/>
<path d="M8.36138 10.8324V2.90074H10.2197V4.36622C10.5671 3.37665 11.3981 2.74966 12.5841 2.74966C12.72 2.74966 12.8636 2.76477 12.9618 2.78743V4.65327C12.7654 4.60795 12.569 4.58528 12.3499 4.58528C11.0884 4.58528 10.2801 5.36334 10.2801 6.8968V10.8324H8.36138Z" fill="black"/>
<path d="M0.659607 10.8324V0H7.67726V1.7072H2.6312V4.60793H7.18625V6.28492H2.6312V10.8324H0.659607Z" fill="black"/>
</svg>
